<?xml version="1.0" encoding="utf-8" standalone="no"?>
<!DOCTYPE svg PUBLIC "-//W3C//DTD SVG 1.1//EN"
  "http://www.w3.org/Graphics/SVG/1.1/DTD/svg11.dtd">
<svg xmlns:xlink="http://www.w3.org/1999/xlink" width="209.52pt" height="257.76pt" viewBox="0 0 209.52 257.76" xmlns="http://www.w3.org/2000/svg" version="1.1">
 <metadata>
  <rdf:RDF xmlns:dc="http://purl.org/dc/elements/1.1/" xmlns:cc="http://creativecommons.org/ns#" xmlns:rdf="http://www.w3.org/1999/02/22-rdf-syntax-ns#">
   <cc:Work>
    <dc:type rdf:resource="http://purl.org/dc/dcmitype/StillImage"/>
    <dc:date>2025-02-19T11:41:29.194477</dc:date>
    <dc:format>image/svg+xml</dc:format>
    <dc:creator>
     <cc:Agent>
      <dc:title>Matplotlib v3.9.2, https://matplotlib.org/</dc:title>
     </cc:Agent>
    </dc:creator>
   </cc:Work>
  </rdf:RDF>
 </metadata>
 <defs>
  <style type="text/css">*{stroke-linejoin: round; stroke-linecap: butt}</style>
 </defs>
 <g id="figure_1">
  <g id="patch_1">
   <path d="M 0 257.76 
L 209.52 257.76 
L 209.52 0 
L 0 0 
z
" style="fill: #ffffff"/>
  </g>
  <g id="axes_1">
   <g id="patch_2">
    <path d="M 4.4 82.72 
L 207.72 82.72 
L 207.72 1.8 
L 4.4 1.8 
z
" style="fill: #ffffff"/>
   </g>
   <g id="matplotlib.axis_1">
    <g id="xtick_1">
     <g id="line2d_1">
      <defs>
       <path id="m37d260f01c" d="M 0 0 
L 0 2.6 
" style="stroke: #000000; stroke-width: 0.5"/>
      </defs>
      <g>
       <use xlink:href="#m37d260f01c" x="4.4" y="82.72" style="stroke: #000000; stroke-width: 0.5"/>
      </g>
     </g>
    </g>
    <g id="xtick_2">
     <g id="line2d_2">
      <g>
       <use xlink:href="#m37d260f01c" x="55.23" y="82.72" style="stroke: #000000; stroke-width: 0.5"/>
      </g>
     </g>
    </g>
    <g id="xtick_3">
     <g id="line2d_3">
      <g>
       <use xlink:href="#m37d260f01c" x="106.06" y="82.72" style="stroke: #000000; stroke-width: 0.5"/>
      </g>
     </g>
    </g>
    <g id="xtick_4">
     <g id="line2d_4">
      <g>
       <use xlink:href="#m37d260f01c" x="156.89" y="82.72" style="stroke: #000000; stroke-width: 0.5"/>
      </g>
     </g>
    </g>
    <g id="xtick_5">
     <g id="line2d_5">
      <g>
       <use xlink:href="#m37d260f01c" x="207.72" y="82.72" style="stroke: #000000; stroke-width: 0.5"/>
      </g>
     </g>
    </g>
    <g id="xtick_6">
     <g id="line2d_6">
      <defs>
       <path id="m00750078c5" d="M 0 0 
L 0 1.5 
" style="stroke: #000000; stroke-width: 0.5"/>
      </defs>
      <g>
       <use xlink:href="#m00750078c5" x="17.1075" y="82.72" style="stroke: #000000; stroke-width: 0.5"/>
      </g>
     </g>
    </g>
    <g id="xtick_7">
     <g id="line2d_7">
      <g>
       <use xlink:href="#m00750078c5" x="29.815" y="82.72" style="stroke: #000000; stroke-width: 0.5"/>
      </g>
     </g>
    </g>
    <g id="xtick_8">
     <g id="line2d_8">
      <g>
       <use xlink:href="#m00750078c5" x="42.5225" y="82.72" style="stroke: #000000; stroke-width: 0.5"/>
      </g>
     </g>
    </g>
    <g id="xtick_9">
     <g id="line2d_9">
      <g>
       <use xlink:href="#m00750078c5" x="67.9375" y="82.72" style="stroke: #000000; stroke-width: 0.5"/>
      </g>
     </g>
    </g>
    <g id="xtick_10">
     <g id="line2d_10">
      <g>
       <use xlink:href="#m00750078c5" x="80.645" y="82.72" style="stroke: #000000; stroke-width: 0.5"/>
      </g>
     </g>
    </g>
    <g id="xtick_11">
     <g id="line2d_11">
      <g>
       <use xlink:href="#m00750078c5" x="93.3525" y="82.72" style="stroke: #000000; stroke-width: 0.5"/>
      </g>
     </g>
    </g>
    <g id="xtick_12">
     <g id="line2d_12">
      <g>
       <use xlink:href="#m00750078c5" x="118.7675" y="82.72" style="stroke: #000000; stroke-width: 0.5"/>
      </g>
     </g>
    </g>
    <g id="xtick_13">
     <g id="line2d_13">
      <g>
       <use xlink:href="#m00750078c5" x="131.475" y="82.72" style="stroke: #000000; stroke-width: 0.5"/>
      </g>
     </g>
    </g>
    <g id="xtick_14">
     <g id="line2d_14">
      <g>
       <use xlink:href="#m00750078c5" x="144.1825" y="82.72" style="stroke: #000000; stroke-width: 0.5"/>
      </g>
     </g>
    </g>
    <g id="xtick_15">
     <g id="line2d_15">
      <g>
       <use xlink:href="#m00750078c5" x="169.5975" y="82.72" style="stroke: #000000; stroke-width: 0.5"/>
      </g>
     </g>
    </g>
    <g id="xtick_16">
     <g id="line2d_16">
      <g>
       <use xlink:href="#m00750078c5" x="182.305" y="82.72" style="stroke: #000000; stroke-width: 0.5"/>
      </g>
     </g>
    </g>
    <g id="xtick_17">
     <g id="line2d_17">
      <g>
       <use xlink:href="#m00750078c5" x="195.0125" y="82.72" style="stroke: #000000; stroke-width: 0.5"/>
      </g>
     </g>
    </g>
   </g>
   <g id="matplotlib.axis_2">
    <g id="ytick_1">
     <g id="line2d_18">
      <defs>
       <path id="m7479b9a928" d="M 0 0 
L -2.6 0 
" style="stroke: #000000; stroke-width: 0.5"/>
      </defs>
      <g>
       <use xlink:href="#m7479b9a928" x="4.4" y="79.041818" style="stroke: #000000; stroke-width: 0.5"/>
      </g>
     </g>
    </g>
    <g id="ytick_2">
     <g id="line2d_19">
      <g>
       <use xlink:href="#m7479b9a928" x="4.4" y="64.329091" style="stroke: #000000; stroke-width: 0.5"/>
      </g>
     </g>
    </g>
    <g id="ytick_3">
     <g id="line2d_20">
      <g>
       <use xlink:href="#m7479b9a928" x="4.4" y="49.616364" style="stroke: #000000; stroke-width: 0.5"/>
      </g>
     </g>
    </g>
    <g id="ytick_4">
     <g id="line2d_21">
      <g>
       <use xlink:href="#m7479b9a928" x="4.4" y="34.903636" style="stroke: #000000; stroke-width: 0.5"/>
      </g>
     </g>
    </g>
    <g id="ytick_5">
     <g id="line2d_22">
      <g>
       <use xlink:href="#m7479b9a928" x="4.4" y="20.190909" style="stroke: #000000; stroke-width: 0.5"/>
      </g>
     </g>
    </g>
    <g id="ytick_6">
     <g id="line2d_23">
      <g>
       <use xlink:href="#m7479b9a928" x="4.4" y="5.478182" style="stroke: #000000; stroke-width: 0.5"/>
      </g>
     </g>
    </g>
    <g id="ytick_7">
     <g id="line2d_24">
      <defs>
       <path id="mf1a3916005" d="M 0 0 
L -1.5 0 
" style="stroke: #000000; stroke-width: 0.5"/>
      </defs>
      <g>
       <use xlink:href="#mf1a3916005" x="4.4" y="71.685455" style="stroke: #000000; stroke-width: 0.5"/>
      </g>
     </g>
    </g>
    <g id="ytick_8">
     <g id="line2d_25">
      <g>
       <use xlink:href="#mf1a3916005" x="4.4" y="56.972727" style="stroke: #000000; stroke-width: 0.5"/>
      </g>
     </g>
    </g>
    <g id="ytick_9">
     <g id="line2d_26">
      <g>
       <use xlink:href="#mf1a3916005" x="4.4" y="42.26" style="stroke: #000000; stroke-width: 0.5"/>
      </g>
     </g>
    </g>
    <g id="ytick_10">
     <g id="line2d_27">
      <g>
       <use xlink:href="#mf1a3916005" x="4.4" y="27.547273" style="stroke: #000000; stroke-width: 0.5"/>
      </g>
     </g>
    </g>
    <g id="ytick_11">
     <g id="line2d_28">
      <g>
       <use xlink:href="#mf1a3916005" x="4.4" y="12.834545" style="stroke: #000000; stroke-width: 0.5"/>
      </g>
     </g>
    </g>
   </g>
   <g id="line2d_29">
    <path d="M 4.393528 79.036973 
L 32.551415 78.917161 
L 35.585441 78.710049 
L 36.862925 78.429721 
L 37.608124 78.068477 
L 38.140409 77.580287 
L 38.566238 76.884361 
L 38.938837 75.809347 
L 39.258208 74.18316 
L 39.577579 71.238731 
L 39.896951 65.822777 
L 40.482464 54.696588 
L 40.588921 55.672608 
L 40.908292 62.728371 
L 41.334121 70.232453 
L 41.70672 73.472267 
L 42.132548 75.335613 
L 42.558377 76.304333 
L 43.037433 76.886679 
L 43.569718 77.20209 
L 44.155232 77.30138 
L 44.740746 77.182564 
L 45.273031 76.834859 
L 45.698859 76.28237 
L 46.071459 75.426549 
L 46.39083 74.165915 
L 46.710201 71.936729 
L 46.976344 68.601931 
L 47.242486 62.647308 
L 47.828 43.54419 
L 47.881228 43.940095 
L 48.040914 48.684859 
L 48.573199 67.516436 
L 48.945799 72.819163 
L 49.318398 75.25753 
L 49.744227 76.648243 
L 50.223283 77.462714 
L 50.808797 77.99354 
L 51.553996 78.349637 
L 52.671795 78.612827 
L 54.588022 78.802763 
L 58.526932 78.928679 
L 69.651693 78.997703 
L 93.710984 78.934955 
L 96.106267 78.759959 
L 96.851466 78.522922 
L 97.277294 78.181348 
L 97.596665 77.615787 
L 97.862808 76.572372 
L 98.075722 74.693706 
L 98.288636 70.050267 
L 98.50155 57.782317 
L 98.661236 48.126649 
L 98.714464 49.046413 
L 99.24675 73.274213 
L 99.566121 76.024786 
L 99.885492 77.066368 
L 100.258091 77.605417 
L 100.737148 77.901465 
L 101.37589 78.014388 
L 102.174318 77.91954 
L 102.866289 77.633015 
L 103.451803 77.146474 
L 103.930859 76.422541 
L 104.303459 75.45807 
L 104.676058 73.786743 
L 104.99543 71.201056 
L 105.261572 67.310466 
L 105.527715 59.647703 
L 105.740629 45.768854 
L 106.006771 5.478182 
L 106.113229 5.795608 
L 106.539057 57.768026 
L 106.858428 67.733791 
L 107.231027 72.562703 
L 107.603627 74.893611 
L 108.029455 76.303033 
L 108.508512 77.166646 
L 109.094026 77.744545 
L 109.785996 78.10958 
L 110.690881 78.334893 
L 111.648995 78.359936 
L 112.234508 78.175883 
L 112.553879 77.864975 
L 112.820022 77.23677 
L 113.032936 76.01387 
L 113.24585 72.961858 
L 113.458764 69.481227 
L 113.565221 71.185551 
L 113.884592 76.749352 
L 114.150735 77.993332 
L 114.470106 78.483905 
L 114.895934 78.715223 
L 115.694362 78.853675 
L 117.92996 78.940821 
L 127.457865 78.994312 
L 153.752753 78.923638 
L 158.756234 78.739428 
L 160.512775 78.480362 
L 161.41766 78.146009 
L 162.003174 77.707462 
L 162.429002 77.124485 
L 162.801602 76.213311 
L 163.120973 74.797723 
L 163.440344 72.097343 
L 163.706486 67.809313 
L 164.292 53.765393 
L 164.398457 54.729337 
L 164.717828 63.504205 
L 165.090428 70.920539 
L 165.463027 74.244037 
L 165.835627 75.807347 
L 166.261455 76.695826 
L 166.740512 77.179719 
L 167.272797 77.400138 
L 167.858311 77.409517 
L 168.443825 77.207445 
L 168.97611 76.784672 
L 169.401938 76.175657 
L 169.774538 75.289731 
L 170.147137 73.789727 
L 170.466508 71.569717 
L 170.785879 67.659368 
L 171.105251 60.659765 
L 171.690764 46.130326 
L 171.797221 47.424078 
L 172.116592 57.446933 
L 172.542421 68.207276 
L 172.91502 72.718607 
L 173.340848 75.246203 
L 173.766676 76.551006 
L 174.245733 77.365325 
L 174.831247 77.921807 
L 175.576446 78.308605 
L 176.641017 78.591934 
L 178.397558 78.79994 
L 181.804183 78.938849 
L 190.586889 79.015119 
L 207.726472 79.035867 
L 207.726472 79.035867 
" clip-path="url(#pa808afb104)" style="fill: none; stroke: #000000; stroke-linecap: square"/>
   </g>
   <g id="patch_3">
    <path d="M 4.4 82.72 
L 4.4 1.8 
" style="fill: none; stroke: #000000; stroke-width: 0.5; stroke-linejoin: miter; stroke-linecap: square"/>
   </g>
   <g id="patch_4">
    <path d="M 207.72 82.72 
L 207.72 1.8 
" style="fill: none; stroke: #000000; stroke-width: 0.5; stroke-linejoin: miter; stroke-linecap: square"/>
   </g>
   <g id="patch_5">
    <path d="M 4.4 82.72 
L 207.72 82.72 
" style="fill: none; stroke: #000000; stroke-width: 0.5; stroke-linejoin: miter; stroke-linecap: square"/>
   </g>
   <g id="patch_6">
    <path d="M 4.4 1.8 
L 207.72 1.8 
" style="fill: none; stroke: #000000; stroke-width: 0.5; stroke-linejoin: miter; stroke-linecap: square"/>
   </g>
  </g>
  <g id="axes_2">
   <g id="patch_7">
    <path d="M 4.4 168.04 
L 207.72 168.04 
L 207.72 87.12 
L 4.4 87.12 
z
" style="fill: #ffffff"/>
   </g>
   <g id="matplotlib.axis_3">
    <g id="xtick_18">
     <g id="line2d_30">
      <g>
       <use xlink:href="#m37d260f01c" x="4.4" y="168.04" style="stroke: #000000; stroke-width: 0.5"/>
      </g>
     </g>
    </g>
    <g id="xtick_19">
     <g id="line2d_31">
      <g>
       <use xlink:href="#m37d260f01c" x="55.23" y="168.04" style="stroke: #000000; stroke-width: 0.5"/>
      </g>
     </g>
    </g>
    <g id="xtick_20">
     <g id="line2d_32">
      <g>
       <use xlink:href="#m37d260f01c" x="106.06" y="168.04" style="stroke: #000000; stroke-width: 0.5"/>
      </g>
     </g>
    </g>
    <g id="xtick_21">
     <g id="line2d_33">
      <g>
       <use xlink:href="#m37d260f01c" x="156.89" y="168.04" style="stroke: #000000; stroke-width: 0.5"/>
      </g>
     </g>
    </g>
    <g id="xtick_22">
     <g id="line2d_34">
      <g>
       <use xlink:href="#m37d260f01c" x="207.72" y="168.04" style="stroke: #000000; stroke-width: 0.5"/>
      </g>
     </g>
    </g>
    <g id="xtick_23">
     <g id="line2d_35">
      <g>
       <use xlink:href="#m00750078c5" x="17.1075" y="168.04" style="stroke: #000000; stroke-width: 0.5"/>
      </g>
     </g>
    </g>
    <g id="xtick_24">
     <g id="line2d_36">
      <g>
       <use xlink:href="#m00750078c5" x="29.815" y="168.04" style="stroke: #000000; stroke-width: 0.5"/>
      </g>
     </g>
    </g>
    <g id="xtick_25">
     <g id="line2d_37">
      <g>
       <use xlink:href="#m00750078c5" x="42.5225" y="168.04" style="stroke: #000000; stroke-width: 0.5"/>
      </g>
     </g>
    </g>
    <g id="xtick_26">
     <g id="line2d_38">
      <g>
       <use xlink:href="#m00750078c5" x="67.9375" y="168.04" style="stroke: #000000; stroke-width: 0.5"/>
      </g>
     </g>
    </g>
    <g id="xtick_27">
     <g id="line2d_39">
      <g>
       <use xlink:href="#m00750078c5" x="80.645" y="168.04" style="stroke: #000000; stroke-width: 0.5"/>
      </g>
     </g>
    </g>
    <g id="xtick_28">
     <g id="line2d_40">
      <g>
       <use xlink:href="#m00750078c5" x="93.3525" y="168.04" style="stroke: #000000; stroke-width: 0.5"/>
      </g>
     </g>
    </g>
    <g id="xtick_29">
     <g id="line2d_41">
      <g>
       <use xlink:href="#m00750078c5" x="118.7675" y="168.04" style="stroke: #000000; stroke-width: 0.5"/>
      </g>
     </g>
    </g>
    <g id="xtick_30">
     <g id="line2d_42">
      <g>
       <use xlink:href="#m00750078c5" x="131.475" y="168.04" style="stroke: #000000; stroke-width: 0.5"/>
      </g>
     </g>
    </g>
    <g id="xtick_31">
     <g id="line2d_43">
      <g>
       <use xlink:href="#m00750078c5" x="144.1825" y="168.04" style="stroke: #000000; stroke-width: 0.5"/>
      </g>
     </g>
    </g>
    <g id="xtick_32">
     <g id="line2d_44">
      <g>
       <use xlink:href="#m00750078c5" x="169.5975" y="168.04" style="stroke: #000000; stroke-width: 0.5"/>
      </g>
     </g>
    </g>
    <g id="xtick_33">
     <g id="line2d_45">
      <g>
       <use xlink:href="#m00750078c5" x="182.305" y="168.04" style="stroke: #000000; stroke-width: 0.5"/>
      </g>
     </g>
    </g>
    <g id="xtick_34">
     <g id="line2d_46">
      <g>
       <use xlink:href="#m00750078c5" x="195.0125" y="168.04" style="stroke: #000000; stroke-width: 0.5"/>
      </g>
     </g>
    </g>
   </g>
   <g id="matplotlib.axis_4">
    <g id="ytick_12">
     <g id="line2d_47">
      <g>
       <use xlink:href="#m7479b9a928" x="4.4" y="164.361818" style="stroke: #000000; stroke-width: 0.5"/>
      </g>
     </g>
    </g>
    <g id="ytick_13">
     <g id="line2d_48">
      <g>
       <use xlink:href="#m7479b9a928" x="4.4" y="149.649091" style="stroke: #000000; stroke-width: 0.5"/>
      </g>
     </g>
    </g>
    <g id="ytick_14">
     <g id="line2d_49">
      <g>
       <use xlink:href="#m7479b9a928" x="4.4" y="134.936364" style="stroke: #000000; stroke-width: 0.5"/>
      </g>
     </g>
    </g>
    <g id="ytick_15">
     <g id="line2d_50">
      <g>
       <use xlink:href="#m7479b9a928" x="4.4" y="120.223636" style="stroke: #000000; stroke-width: 0.5"/>
      </g>
     </g>
    </g>
    <g id="ytick_16">
     <g id="line2d_51">
      <g>
       <use xlink:href="#m7479b9a928" x="4.4" y="105.510909" style="stroke: #000000; stroke-width: 0.5"/>
      </g>
     </g>
    </g>
    <g id="ytick_17">
     <g id="line2d_52">
      <g>
       <use xlink:href="#m7479b9a928" x="4.4" y="90.798182" style="stroke: #000000; stroke-width: 0.5"/>
      </g>
     </g>
    </g>
    <g id="ytick_18">
     <g id="line2d_53">
      <g>
       <use xlink:href="#mf1a3916005" x="4.4" y="157.005455" style="stroke: #000000; stroke-width: 0.5"/>
      </g>
     </g>
    </g>
    <g id="ytick_19">
     <g id="line2d_54">
      <g>
       <use xlink:href="#mf1a3916005" x="4.4" y="142.292727" style="stroke: #000000; stroke-width: 0.5"/>
      </g>
     </g>
    </g>
    <g id="ytick_20">
     <g id="line2d_55">
      <g>
       <use xlink:href="#mf1a3916005" x="4.4" y="127.58" style="stroke: #000000; stroke-width: 0.5"/>
      </g>
     </g>
    </g>
    <g id="ytick_21">
     <g id="line2d_56">
      <g>
       <use xlink:href="#mf1a3916005" x="4.4" y="112.867273" style="stroke: #000000; stroke-width: 0.5"/>
      </g>
     </g>
    </g>
    <g id="ytick_22">
     <g id="line2d_57">
      <g>
       <use xlink:href="#mf1a3916005" x="4.4" y="98.154545" style="stroke: #000000; stroke-width: 0.5"/>
      </g>
     </g>
    </g>
   </g>
   <g id="line2d_58">
    <path d="M 4.393528 164.349053 
L 25.89785 164.218214 
L 29.623846 164.002654 
L 31.327159 163.702953 
L 32.338501 163.312241 
L 33.030472 162.813461 
L 33.562757 162.156554 
L 33.988585 161.300387 
L 34.414413 159.889243 
L 34.787013 157.8064 
L 35.159612 154.25381 
L 35.532212 148.278516 
L 36.170954 136.683832 
L 36.224183 136.538082 
L 36.277411 136.614803 
L 36.437097 138.066972 
L 36.862925 146.172949 
L 37.341982 153.457003 
L 37.76781 157.042771 
L 38.246866 159.266287 
L 38.725923 160.512354 
L 39.258208 161.305868 
L 39.843722 161.783007 
L 40.482464 162.017887 
L 41.174435 162.027434 
L 41.813177 161.812901 
L 42.345462 161.416762 
L 42.824519 160.795192 
L 43.250347 159.887996 
L 43.676175 158.38086 
L 44.048775 156.136423 
L 44.368146 152.886135 
L 44.687517 147.241331 
L 45.006888 136.941529 
L 45.379488 115.817533 
L 45.698859 102.113861 
L 45.752088 102.475455 
L 45.911773 108.586597 
L 46.603744 145.11339 
L 46.976344 153.021191 
L 47.402172 157.453269 
L 47.828 159.754982 
L 48.307057 161.202165 
L 48.839342 162.130489 
L 49.478084 162.783274 
L 50.276512 163.254442 
L 51.341082 163.603796 
L 52.937938 163.872018 
L 55.652592 164.072362 
L 61.028673 164.208061 
L 74.548717 164.275798 
L 90.730186 164.177725 
L 93.444841 163.986039 
L 94.402954 163.723221 
L 94.935239 163.356005 
L 95.307839 162.809703 
L 95.62721 161.845489 
L 95.893353 160.196783 
L 96.159495 156.877322 
L 96.585324 150.945775 
L 96.691781 151.903321 
L 97.330523 160.303783 
L 97.703122 161.879551 
L 98.075722 162.582986 
L 98.554779 162.998543 
L 99.140292 163.20009 
L 99.991949 163.234018 
L 100.950062 163.052739 
L 101.801718 162.676676 
L 102.493689 162.121947 
L 103.025974 161.416643 
L 103.505031 160.402378 
L 103.930859 158.951858 
L 104.303459 156.905695 
L 104.676058 153.491825 
L 104.99543 148.480534 
L 105.314801 139.586963 
L 105.580943 126.098521 
L 106.113229 90.798182 
L 106.326143 108.347059 
L 106.698742 135.109609 
L 107.071342 147.344024 
L 107.49717 154.102448 
L 107.922998 157.593837 
L 108.402055 159.763504 
L 108.93434 161.129884 
L 109.519854 162.005608 
L 110.158596 162.574028 
L 110.957024 162.981194 
L 111.915137 163.212289 
L 112.87325 163.217182 
L 113.511993 163.026842 
L 113.991049 162.648354 
L 114.363649 162.015051 
L 114.68302 160.901879 
L 114.949163 159.048899 
L 115.215305 155.53659 
L 115.534676 150.945775 
L 115.587905 150.957641 
L 115.694362 151.993227 
L 116.333104 160.997191 
L 116.652475 162.415061 
L 117.025075 163.167767 
L 117.504132 163.610108 
L 118.142874 163.874262 
L 119.260673 164.060146 
L 121.655956 164.185407 
L 128.628892 164.26358 
L 148.536358 164.235117 
L 156.840007 164.054225 
L 159.767576 163.795217 
L 161.311203 163.455735 
L 162.269316 163.036138 
L 162.961287 162.500515 
L 163.493572 161.816691 
L 163.972629 160.806673 
L 164.398457 159.299631 
L 164.771057 157.052126 
L 165.090428 153.765376 
L 165.409799 147.975313 
L 165.72917 137.248039 
L 166.10177 115.25184 
L 166.367912 102.475455 
L 166.421141 102.113861 
L 166.527598 104.166557 
L 166.79374 119.289884 
L 167.219569 141.089879 
L 167.592168 150.470819 
L 168.017996 155.703254 
L 168.443825 158.38086 
L 168.922881 160.026966 
L 169.455166 161.038972 
L 169.987452 161.604717 
L 170.572965 161.931294 
L 171.211708 162.051858 
L 171.85045 161.966032 
L 172.435963 161.682649 
L 172.968249 161.181159 
L 173.447305 160.404879 
L 173.873134 159.266287 
L 174.245733 157.660699 
L 174.618333 155.05054 
L 174.990932 150.722182 
L 175.469989 141.876933 
L 175.842589 136.614803 
L 175.895817 136.538082 
L 176.002274 137.047975 
L 176.215188 140.285047 
L 177.013616 154.887048 
L 177.439444 158.515355 
L 177.865272 160.507856 
L 178.344329 161.778246 
L 178.876614 162.589873 
L 179.515357 163.152755 
L 180.313784 163.550687 
L 181.431583 163.847999 
L 183.241353 164.073111 
L 186.59475 164.22833 
L 194.525799 164.320049 
L 207.726472 164.349053 
L 207.726472 164.349053 
" clip-path="url(#p2e1c659b1d)" style="fill: none; stroke: #000000; stroke-linecap: square"/>
   </g>
   <g id="patch_8">
    <path d="M 4.4 168.04 
L 4.4 87.12 
" style="fill: none; stroke: #000000; stroke-width: 0.5; stroke-linejoin: miter; stroke-linecap: square"/>
   </g>
   <g id="patch_9">
    <path d="M 207.72 168.04 
L 207.72 87.12 
" style="fill: none; stroke: #000000; stroke-width: 0.5; stroke-linejoin: miter; stroke-linecap: square"/>
   </g>
   <g id="patch_10">
    <path d="M 4.4 168.04 
L 207.72 168.04 
" style="fill: none; stroke: #000000; stroke-width: 0.5; stroke-linejoin: miter; stroke-linecap: square"/>
   </g>
   <g id="patch_11">
    <path d="M 4.4 87.12 
L 207.72 87.12 
" style="fill: none; stroke: #000000; stroke-width: 0.5; stroke-linejoin: miter; stroke-linecap: square"/>
   </g>
  </g>
  <g id="axes_3">
   <g id="patch_12">
    <path d="M 4.4 253.36 
L 207.72 253.36 
L 207.72 172.44 
L 4.4 172.44 
z
" style="fill: #ffffff"/>
   </g>
   <g id="matplotlib.axis_5">
    <g id="xtick_35">
     <g id="line2d_59">
      <g>
       <use xlink:href="#m37d260f01c" x="4.4" y="253.36" style="stroke: #000000; stroke-width: 0.5"/>
      </g>
     </g>
    </g>
    <g id="xtick_36">
     <g id="line2d_60">
      <g>
       <use xlink:href="#m37d260f01c" x="55.23" y="253.36" style="stroke: #000000; stroke-width: 0.5"/>
      </g>
     </g>
    </g>
    <g id="xtick_37">
     <g id="line2d_61">
      <g>
       <use xlink:href="#m37d260f01c" x="106.06" y="253.36" style="stroke: #000000; stroke-width: 0.5"/>
      </g>
     </g>
    </g>
    <g id="xtick_38">
     <g id="line2d_62">
      <g>
       <use xlink:href="#m37d260f01c" x="156.89" y="253.36" style="stroke: #000000; stroke-width: 0.5"/>
      </g>
     </g>
    </g>
    <g id="xtick_39">
     <g id="line2d_63">
      <g>
       <use xlink:href="#m37d260f01c" x="207.72" y="253.36" style="stroke: #000000; stroke-width: 0.5"/>
      </g>
     </g>
    </g>
    <g id="xtick_40">
     <g id="line2d_64">
      <g>
       <use xlink:href="#m00750078c5" x="17.1075" y="253.36" style="stroke: #000000; stroke-width: 0.5"/>
      </g>
     </g>
    </g>
    <g id="xtick_41">
     <g id="line2d_65">
      <g>
       <use xlink:href="#m00750078c5" x="29.815" y="253.36" style="stroke: #000000; stroke-width: 0.5"/>
      </g>
     </g>
    </g>
    <g id="xtick_42">
     <g id="line2d_66">
      <g>
       <use xlink:href="#m00750078c5" x="42.5225" y="253.36" style="stroke: #000000; stroke-width: 0.5"/>
      </g>
     </g>
    </g>
    <g id="xtick_43">
     <g id="line2d_67">
      <g>
       <use xlink:href="#m00750078c5" x="67.9375" y="253.36" style="stroke: #000000; stroke-width: 0.5"/>
      </g>
     </g>
    </g>
    <g id="xtick_44">
     <g id="line2d_68">
      <g>
       <use xlink:href="#m00750078c5" x="80.645" y="253.36" style="stroke: #000000; stroke-width: 0.5"/>
      </g>
     </g>
    </g>
    <g id="xtick_45">
     <g id="line2d_69">
      <g>
       <use xlink:href="#m00750078c5" x="93.3525" y="253.36" style="stroke: #000000; stroke-width: 0.5"/>
      </g>
     </g>
    </g>
    <g id="xtick_46">
     <g id="line2d_70">
      <g>
       <use xlink:href="#m00750078c5" x="118.7675" y="253.36" style="stroke: #000000; stroke-width: 0.5"/>
      </g>
     </g>
    </g>
    <g id="xtick_47">
     <g id="line2d_71">
      <g>
       <use xlink:href="#m00750078c5" x="131.475" y="253.36" style="stroke: #000000; stroke-width: 0.5"/>
      </g>
     </g>
    </g>
    <g id="xtick_48">
     <g id="line2d_72">
      <g>
       <use xlink:href="#m00750078c5" x="144.1825" y="253.36" style="stroke: #000000; stroke-width: 0.5"/>
      </g>
     </g>
    </g>
    <g id="xtick_49">
     <g id="line2d_73">
      <g>
       <use xlink:href="#m00750078c5" x="169.5975" y="253.36" style="stroke: #000000; stroke-width: 0.5"/>
      </g>
     </g>
    </g>
    <g id="xtick_50">
     <g id="line2d_74">
      <g>
       <use xlink:href="#m00750078c5" x="182.305" y="253.36" style="stroke: #000000; stroke-width: 0.5"/>
      </g>
     </g>
    </g>
    <g id="xtick_51">
     <g id="line2d_75">
      <g>
       <use xlink:href="#m00750078c5" x="195.0125" y="253.36" style="stroke: #000000; stroke-width: 0.5"/>
      </g>
     </g>
    </g>
   </g>
   <g id="matplotlib.axis_6">
    <g id="ytick_23">
     <g id="line2d_76">
      <g>
       <use xlink:href="#m7479b9a928" x="4.4" y="249.681818" style="stroke: #000000; stroke-width: 0.5"/>
      </g>
     </g>
    </g>
    <g id="ytick_24">
     <g id="line2d_77">
      <g>
       <use xlink:href="#m7479b9a928" x="4.4" y="234.969091" style="stroke: #000000; stroke-width: 0.5"/>
      </g>
     </g>
    </g>
    <g id="ytick_25">
     <g id="line2d_78">
      <g>
       <use xlink:href="#m7479b9a928" x="4.4" y="220.256364" style="stroke: #000000; stroke-width: 0.5"/>
      </g>
     </g>
    </g>
    <g id="ytick_26">
     <g id="line2d_79">
      <g>
       <use xlink:href="#m7479b9a928" x="4.4" y="205.543636" style="stroke: #000000; stroke-width: 0.5"/>
      </g>
     </g>
    </g>
    <g id="ytick_27">
     <g id="line2d_80">
      <g>
       <use xlink:href="#m7479b9a928" x="4.4" y="190.830909" style="stroke: #000000; stroke-width: 0.5"/>
      </g>
     </g>
    </g>
    <g id="ytick_28">
     <g id="line2d_81">
      <g>
       <use xlink:href="#m7479b9a928" x="4.4" y="176.118182" style="stroke: #000000; stroke-width: 0.5"/>
      </g>
     </g>
    </g>
    <g id="ytick_29">
     <g id="line2d_82">
      <g>
       <use xlink:href="#mf1a3916005" x="4.4" y="242.325455" style="stroke: #000000; stroke-width: 0.5"/>
      </g>
     </g>
    </g>
    <g id="ytick_30">
     <g id="line2d_83">
      <g>
       <use xlink:href="#mf1a3916005" x="4.4" y="227.612727" style="stroke: #000000; stroke-width: 0.5"/>
      </g>
     </g>
    </g>
    <g id="ytick_31">
     <g id="line2d_84">
      <g>
       <use xlink:href="#mf1a3916005" x="4.4" y="212.9" style="stroke: #000000; stroke-width: 0.5"/>
      </g>
     </g>
    </g>
    <g id="ytick_32">
     <g id="line2d_85">
      <g>
       <use xlink:href="#mf1a3916005" x="4.4" y="198.187273" style="stroke: #000000; stroke-width: 0.5"/>
      </g>
     </g>
    </g>
    <g id="ytick_33">
     <g id="line2d_86">
      <g>
       <use xlink:href="#mf1a3916005" x="4.4" y="183.474545" style="stroke: #000000; stroke-width: 0.5"/>
      </g>
     </g>
    </g>
   </g>
   <g id="line2d_87">
    <path d="M 4.393528 249.651624 
L 18.3394 249.504168 
L 21.852483 249.2714 
L 23.555795 248.953943 
L 24.567137 248.562055 
L 25.312336 248.044845 
L 25.89785 247.368514 
L 26.430135 246.379415 
L 26.909192 244.985212 
L 27.441477 242.652675 
L 28.293133 238.725435 
L 28.506047 238.565134 
L 28.665733 238.792005 
L 28.931876 239.70417 
L 30.315817 245.448913 
L 30.901331 246.640083 
L 31.540073 247.415456 
L 32.232044 247.908082 
L 33.0837 248.24011 
L 34.148271 248.412579 
L 35.372526 248.385882 
L 36.490325 248.143497 
L 37.341982 247.740081 
L 38.033952 247.157258 
L 38.566238 246.425539 
L 39.045294 245.38883 
L 39.471122 243.933764 
L 39.896951 241.55588 
L 40.26955 238.052158 
L 40.64215 231.963682 
L 40.961521 222.929375 
L 41.334121 205.53685 
L 41.759949 186.577271 
L 41.813177 186.186122 
L 41.866406 186.464568 
L 42.026091 190.949081 
L 43.037433 232.697379 
L 43.463261 238.994451 
L 43.88909 242.427073 
L 44.368146 244.645787 
L 44.900431 246.095696 
L 45.485945 247.061866 
L 46.177916 247.763228 
L 47.029572 248.287012 
L 48.147371 248.690252 
L 49.744227 249.006078 
L 52.245967 249.248417 
L 56.663934 249.423576 
L 65.978925 249.531628 
L 83.916936 249.507692 
L 89.133331 249.341787 
L 90.517272 249.106011 
L 91.209243 248.769667 
L 91.6883 248.264152 
L 92.114128 247.455167 
L 92.593185 246.538018 
L 92.75287 246.527643 
L 92.965784 246.809925 
L 93.870669 248.39047 
L 94.402954 248.761329 
L 95.148154 248.971977 
L 96.372409 249.044071 
L 98.182179 248.919064 
L 99.832263 248.595338 
L 100.950062 248.163422 
L 101.74849 247.637461 
L 102.387232 246.968279 
L 102.919517 246.108812 
L 103.398574 244.926005 
L 103.824402 243.314357 
L 104.25023 240.784905 
L 104.676058 236.640132 
L 105.101887 229.75888 
L 106.006771 210.774714 
L 106.113229 210.809028 
L 106.272914 212.53368 
L 106.592285 219.830146 
L 107.231027 233.921518 
L 107.710084 239.732214 
L 108.189141 243.006094 
L 108.721426 245.101993 
L 109.253711 246.353578 
L 109.839225 247.210917 
L 110.531196 247.840311 
L 111.382852 248.305127 
L 112.500651 248.63994 
L 113.884592 248.814284 
L 115.268534 248.779932 
L 116.279876 248.548691 
L 116.971846 248.160757 
L 117.450903 247.647167 
L 117.876731 246.844436 
L 118.249331 245.631961 
L 118.621931 243.574398 
L 119.473587 237.70306 
L 119.526815 237.792666 
L 119.686501 238.584991 
L 120.8043 246.337061 
L 121.283357 247.546962 
L 121.815642 248.256891 
L 122.454384 248.712427 
L 123.30604 249.028735 
L 124.636753 249.262884 
L 127.085265 249.431608 
L 132.567803 249.537742 
L 146.939503 249.549537 
L 157.585207 249.386195 
L 161.470889 249.131639 
L 163.493572 248.799961 
L 164.771057 248.383599 
L 165.675942 247.86473 
L 166.367912 247.214357 
L 166.953426 246.339448 
L 167.432483 245.222312 
L 167.858311 243.688592 
L 168.284139 241.233812 
L 168.656739 237.688841 
L 169.029338 231.639812 
L 169.348709 222.735571 
L 169.721309 204.966663 
L 170.253594 176.508196 
L 170.306823 176.118182 
L 170.360051 176.504725 
L 170.519737 181.857508 
L 171.531079 230.086774 
L 171.956907 237.32462 
L 172.382735 241.268158 
L 172.861792 243.812512 
L 173.394077 245.468138 
L 173.979591 246.562 
L 174.618333 247.295639 
L 175.363532 247.821636 
L 176.321645 248.211343 
L 177.492673 248.440279 
L 178.823386 248.477256 
L 179.994413 248.295242 
L 180.84607 247.945427 
L 181.484812 247.452668 
L 182.070325 246.695703 
L 182.655839 245.528348 
L 183.401038 244.001166 
L 183.613953 243.904411 
L 183.826867 244.074456 
L 184.146238 244.753977 
L 185.317265 247.639275 
L 185.902779 248.36698 
L 186.541521 248.818141 
L 187.393177 249.141733 
L 188.72389 249.378134 
L 191.119174 249.536106 
L 196.761397 249.630174 
L 207.726472 249.665013 
L 207.726472 249.665013 
" clip-path="url(#p60fca267ed)" style="fill: none; stroke: #000000; stroke-linecap: square"/>
   </g>
   <g id="patch_13">
    <path d="M 4.4 253.36 
L 4.4 172.44 
" style="fill: none; stroke: #000000; stroke-width: 0.5; stroke-linejoin: miter; stroke-linecap: square"/>
   </g>
   <g id="patch_14">
    <path d="M 207.72 253.36 
L 207.72 172.44 
" style="fill: none; stroke: #000000; stroke-width: 0.5; stroke-linejoin: miter; stroke-linecap: square"/>
   </g>
   <g id="patch_15">
    <path d="M 4.4 253.36 
L 207.72 253.36 
" style="fill: none; stroke: #000000; stroke-width: 0.5; stroke-linejoin: miter; stroke-linecap: square"/>
   </g>
   <g id="patch_16">
    <path d="M 4.4 172.44 
L 207.72 172.44 
" style="fill: none; stroke: #000000; stroke-width: 0.5; stroke-linejoin: miter; stroke-linecap: square"/>
   </g>
  </g>
 </g>
 <defs>
  <clipPath id="pa808afb104">
   <rect x="4.4" y="1.8" width="203.32" height="80.92"/>
  </clipPath>
  <clipPath id="p2e1c659b1d">
   <rect x="4.4" y="87.12" width="203.32" height="80.92"/>
  </clipPath>
  <clipPath id="p60fca267ed">
   <rect x="4.4" y="172.44" width="203.32" height="80.92"/>
  </clipPath>
 </defs>
</svg>
